<?xml version="1.0" encoding="iso-8859-1"?>
<!-- Generator: Adobe Illustrator 18.0.0, SVG Export Plug-In . SVG Version: 6.00 Build 0)  -->
<!DOCTYPE svg PUBLIC "-//W3C//DTD SVG 1.1//EN" "http://www.w3.org/Graphics/SVG/1.1/DTD/svg11.dtd">
<svg version="1.1" id="Layer_1" xmlns="http://www.w3.org/2000/svg" xmlns:xlink="http://www.w3.org/1999/xlink" x="0px" y="0px"
	 viewBox="0 0 152 142" style="enable-background:new 0 0 152 142;" xml:space="preserve">
<g>
	<path style="fill:#FFFFFF;" d="M55.059,93.436c1.975,0,3.773,0,5.57,0c19.16,0.005,38.322-0.119,57.48,0.108
		c4.632,0.055,6.841-1.558,8.203-5.957c3.789-12.236,7.996-24.343,12.041-36.499c2.719-8.171,1.891-9.365-6.724-9.353
		c-29.489,0.039-58.979-0.018-88.466,0.289c-4.923,0.051-7.182-1.464-8.19-6.177c-0.865-4.043-2.333-7.992-3.904-11.832
		c-0.615-1.502-2.159-3.596-3.414-3.694c-5.285-0.413-10.644-0.433-15.922,0.026c-1.194,0.104-3.087,2.771-2.985,4.135
		c0.098,1.32,2.169,3.121,3.7,3.555c2.16,0.612,4.643,0.363,6.948,0.113c3.35-0.362,4.979,0.817,6.059,4.162
		c7.67,23.752,15.499,47.453,23.454,71.111c1.07,3.183,1.123,5.258-1.559,7.83c-3.575,3.427-3.737,9.408-1.051,13.414
		c2.778,4.141,6.861,5.735,11.702,4.97c4.885-0.772,8.52-4.873,9.159-9.932c0.162-1.286,0.209-2.586,0.328-4.121
		c11.783,0,23.35,0,35.046,0c0.138,1.792,0.141,3.288,0.386,4.743c0.898,5.337,5.463,9.384,10.675,9.559
		c5.54,0.186,10.437-3.733,11.477-9.185c1-5.24-1.82-10.744-6.85-12.5c-2.295-0.801-4.898-0.969-7.364-0.984
		c-13.495-0.083-26.991-0.03-40.486-0.023c-12.628,0.007-12.629,0.007-15.429-12.385C54.91,94.652,54.968,94.476,55.059,93.436z"/>
</g>
</svg>
