<?xml version="1.0" encoding="iso-8859-1"?>
<!-- Generator: Adobe Illustrator 18.0.0, SVG Export Plug-In . SVG Version: 6.00 Build 0)  -->
<!DOCTYPE svg PUBLIC "-//W3C//DTD SVG 1.1//EN" "http://www.w3.org/Graphics/SVG/1.1/DTD/svg11.dtd">
<svg version="1.1" id="Layer_1" xmlns="http://www.w3.org/2000/svg" xmlns:xlink="http://www.w3.org/1999/xlink" x="0px" y="0px"
	 viewBox="0 0 612 792" style="enable-background:new 0 0 612 792;" xml:space="preserve">
<g>
	<path d="M277.059,415.436c1.975,0,3.773,0,5.57,0c19.16,0.005,38.322-0.119,57.48,0.108c4.633,0.055,6.841-1.558,8.203-5.957
		c3.789-12.236,7.997-24.343,12.041-36.499c2.719-8.171,1.891-9.365-6.724-9.353c-29.489,0.039-58.979-0.018-88.466,0.289
		c-4.923,0.051-7.182-1.464-8.19-6.177c-0.865-4.043-2.333-7.992-3.904-11.832c-0.615-1.502-2.159-3.596-3.414-3.694
		c-5.285-0.413-10.644-0.433-15.922,0.026c-1.194,0.104-3.087,2.771-2.985,4.135c0.098,1.32,2.169,3.121,3.7,3.555
		c2.16,0.612,4.643,0.363,6.948,0.113c3.35-0.362,4.979,0.817,6.059,4.163c7.67,23.752,15.499,47.453,23.454,71.111
		c1.07,3.183,1.123,5.258-1.559,7.83c-3.575,3.427-3.737,9.408-1.051,13.414c2.778,4.141,6.861,5.735,11.702,4.97
		c4.885-0.772,8.52-4.873,9.159-9.932c0.162-1.286,0.209-2.586,0.328-4.121c11.783,0,23.35,0,35.046,0
		c0.138,1.792,0.141,3.288,0.386,4.743c0.898,5.337,5.463,9.384,10.675,9.559c5.54,0.186,10.437-3.733,11.477-9.185
		c1-5.24-1.82-10.744-6.85-12.5c-2.295-0.801-4.898-0.969-7.364-0.984c-13.495-0.083-26.991-0.03-40.486-0.023
		c-12.628,0.007-12.629,0.007-15.429-12.385C276.91,416.652,276.968,416.476,277.059,415.436z"/>
	<path style="fill:#FFFFFF;" d="M277.059,415.436c-0.092,1.04-0.15,1.216-0.115,1.371c2.8,12.392,2.8,12.391,15.429,12.385
		c13.496-0.007,26.991-0.06,40.486,0.023c2.466,0.015,5.07,0.183,7.364,0.984c5.03,1.755,7.849,7.26,6.85,12.5
		c-1.04,5.452-5.937,9.371-11.477,9.185c-5.212-0.175-9.777-4.221-10.675-9.559c-0.245-1.455-0.248-2.951-0.386-4.743
		c-11.697,0-23.263,0-35.046,0c-0.119,1.535-0.166,2.835-0.328,4.121c-0.639,5.06-4.274,9.16-9.159,9.932
		c-4.841,0.765-8.925-0.829-11.702-4.97c-2.687-4.006-2.524-9.987,1.051-13.414c2.682-2.571,2.629-4.647,1.559-7.83
		c-7.954-23.658-15.784-47.359-23.454-71.111c-1.08-3.345-2.709-4.525-6.059-4.163c-2.305,0.249-4.789,0.498-6.948-0.113
		c-1.532-0.434-3.602-2.235-3.7-3.555c-0.101-1.363,1.792-4.031,2.985-4.135c5.278-0.459,10.637-0.439,15.922-0.026
		c1.255,0.098,2.8,2.192,3.414,3.694c1.571,3.84,3.039,7.789,3.904,11.832c1.008,4.713,3.267,6.228,8.19,6.177
		c29.486-0.307,58.977-0.25,88.466-0.289c8.615-0.011,9.443,1.182,6.724,9.353c-4.045,12.157-8.252,24.263-12.041,36.499
		c-1.362,4.399-3.57,6.012-8.203,5.957c-19.158-0.227-38.32-0.103-57.48-0.108C280.832,415.435,279.034,415.436,277.059,415.436z"/>
</g>
</svg>
